<svg width="300" height="236" viewBox="0 0 300 236" fill="none" xmlns="http://www.w3.org/2000/svg">
<path fill-rule="evenodd" clip-rule="evenodd" d="M150 36.2826C150 55.821 134.161 71.6599 114.622 71.6599C95.0841 71.6599 79.2451 55.821 79.2451 36.2826C79.2451 16.7442 95.0841 0.905273 114.622 0.905273C134.161 0.905273 150 16.7442 150 36.2826ZM150 118.358C150 137.896 134.161 153.735 114.622 153.735C95.0841 153.735 79.2451 137.896 79.2451 118.358C79.2451 98.8194 95.0841 82.9804 114.622 82.9804C134.161 82.9804 150 98.8194 150 118.358ZM35.3773 153.735C54.9157 153.735 70.7547 137.896 70.7547 118.358C70.7547 98.8194 54.9157 82.9804 35.3773 82.9804C15.839 82.9804 0 98.8194 0 118.358C0 137.896 15.839 153.735 35.3773 153.735ZM229.245 118.358C229.245 137.896 213.406 153.735 193.868 153.735C174.329 153.735 158.49 137.896 158.49 118.358C158.49 98.8194 174.329 82.9804 193.868 82.9804C213.406 82.9804 229.245 98.8194 229.245 118.358ZM264.622 235.81C284.161 235.81 300 219.971 300 200.433C300 180.895 284.161 165.056 264.622 165.056C245.084 165.056 229.245 180.895 229.245 200.433C229.245 219.971 245.084 235.81 264.622 235.81ZM158.49 36.2826C158.49 16.7442 174.329 0.905273 193.868 0.905273H264.622C284.161 0.905273 300 16.7442 300 36.2826C300 55.821 284.161 71.6599 264.622 71.6599H193.868C174.329 71.6599 158.49 55.821 158.49 36.2826ZM114.622 165.056C95.0841 165.056 79.2451 180.895 79.2451 200.433C79.2451 219.971 95.0841 235.81 114.622 235.81H185.377C204.915 235.81 220.754 219.971 220.754 200.433C220.754 180.895 204.915 165.056 185.377 165.056H114.622Z" fill="white"/>
</svg>
