<svg viewBox="0 0 501 103" fill="none" xmlns="http://www.w3.org/2000/svg">
<path fill-rule="evenodd" clip-rule="evenodd" d="M58.7219 24.7709C58.7219 32.4198 52.5212 38.6205 44.8723 38.6205C37.2234 38.6205 31.0228 32.4198 31.0228 24.7709C31.0228 17.122 37.2234 10.9214 44.8723 10.9214C52.5212 10.9214 58.7219 17.122 58.7219 24.7709ZM58.7219 56.9017C58.7219 64.5506 52.5212 70.7513 44.8723 70.7513C37.2234 70.7513 31.0228 64.5506 31.0228 56.9017C31.0228 49.2529 37.2234 43.0522 44.8723 43.0522C52.5212 43.0522 58.7219 49.2529 58.7219 56.9017ZM13.8495 70.7513C21.4984 70.7513 27.6991 64.5506 27.6991 56.9017C27.6991 49.2529 21.4984 43.0522 13.8495 43.0522C6.20065 43.0522 0 49.2529 0 56.9017C0 64.5506 6.20065 70.7513 13.8495 70.7513ZM89.7452 56.9017C89.7452 64.5506 83.5445 70.7513 75.8956 70.7513C68.2468 70.7513 62.0461 64.5506 62.0461 56.9017C62.0461 49.2529 68.2468 43.0522 75.8956 43.0522C83.5445 43.0522 89.7452 49.2529 89.7452 56.9017ZM103.595 102.882C111.244 102.882 117.444 96.6815 117.444 89.0326C117.444 81.3837 111.244 75.183 103.595 75.183C95.9459 75.183 89.7452 81.3837 89.7452 89.0326C89.7452 96.6815 95.9459 102.882 103.595 102.882ZM62.0461 24.7709C62.0461 17.122 68.2468 10.9214 75.8957 10.9214H103.595C111.244 10.9214 117.444 17.122 117.444 24.7709C117.444 32.4198 111.244 38.6205 103.595 38.6205H75.8956C68.2467 38.6205 62.0461 32.4198 62.0461 24.7709ZM44.8723 75.183C37.2234 75.183 31.0228 81.3837 31.0228 89.0326C31.0228 96.6815 37.2234 102.882 44.8723 102.882H72.5714C80.2203 102.882 86.4209 96.6815 86.4209 89.0326C86.4209 81.3837 80.2203 75.183 72.5714 75.183H44.8723Z" fill="white"/>
<path d="M183.598 90.0249C177.492 90.0249 172.085 88.7742 167.376 86.2729C162.741 83.698 159.1 80.2035 156.451 75.7894C153.876 71.3017 152.589 66.1519 152.589 60.3399C152.589 55.7787 153.325 51.6221 154.796 47.87C156.267 44.118 158.327 40.881 160.976 38.159C163.624 35.3634 166.751 33.2299 170.356 31.7585C174.034 30.2136 178.007 29.4411 182.274 29.4411C186.173 29.4411 189.741 30.1768 192.978 31.6481C196.289 33.1195 199.158 35.1427 201.586 37.7176C204.013 40.2189 205.853 43.2352 207.103 46.7665C208.428 50.2242 209.053 54.013 208.979 58.1329L208.869 62.9884H161.859L159.21 53.6084H197.503L195.847 55.4844V52.9463C195.627 50.7392 194.891 48.7897 193.64 47.0976C192.39 45.3319 190.771 43.9709 188.785 43.0145C186.872 41.9846 184.738 41.4696 182.384 41.4696C178.779 41.4696 175.726 42.1685 173.225 43.5663C170.724 44.8905 168.811 46.8769 167.487 49.5253C166.236 52.1738 165.611 55.4476 165.611 59.3468C165.611 63.0988 166.383 66.3726 167.928 69.1682C169.546 71.9638 171.827 74.1341 174.77 75.679C177.713 77.224 181.134 77.9964 185.033 77.9964C187.755 77.9964 190.256 77.555 192.537 76.6722C194.891 75.7894 197.392 74.2076 200.041 71.927L206.662 81.1967C204.676 83.0359 202.395 84.6176 199.82 85.9419C197.319 87.1925 194.67 88.1857 191.875 88.9214C189.079 89.6571 186.32 90.0249 183.598 90.0249ZM213.607 88.9214V30.7653H226.85L227.07 42.5731L224.863 43.4559C225.525 41.5431 226.519 39.7775 227.843 38.159C229.167 36.4669 230.749 34.9955 232.588 33.7449C234.427 32.4942 236.377 31.5378 238.437 30.8757C240.497 30.14 242.63 29.7721 244.837 29.7721C248.001 29.7721 250.796 30.2871 253.224 31.3171C255.652 32.3471 257.675 33.9288 259.293 36.0623C260.985 38.1958 262.273 40.9178 263.156 44.2284L261.059 43.787L261.831 42.0213C262.714 40.2557 263.891 38.6372 265.363 37.1658C266.834 35.6944 268.489 34.407 270.329 33.3034C272.168 32.1263 274.081 31.2435 276.067 30.655C278.127 30.0664 280.113 29.7721 282.026 29.7721C286.44 29.7721 290.119 30.655 293.061 32.4206C296.004 34.1863 298.211 36.8715 299.683 40.4764C301.154 44.0813 301.89 48.5322 301.89 53.8291V88.9214H288.316V54.7119C288.316 50.2978 287.433 47.024 285.668 44.8905C283.976 42.757 281.327 41.6903 277.722 41.6903C275.81 41.6903 274.044 42.0213 272.425 42.6835C270.807 43.272 269.372 44.1548 268.122 45.3319C266.945 46.4355 266.025 47.7597 265.363 49.3046C264.701 50.776 264.37 52.4313 264.37 54.2705V88.9214H250.796V54.6016C250.796 50.4082 249.877 47.2079 248.037 45.0009C246.272 42.7938 243.734 41.6903 240.423 41.6903C238.51 41.6903 236.745 42.0213 235.126 42.6835C233.581 43.272 232.183 44.1548 230.933 45.3319C229.756 46.4355 228.836 47.7229 228.174 49.1943C227.512 50.6657 227.181 52.2842 227.181 54.0498V88.9214H213.607ZM341.79 90.0249C339.215 90.0249 336.714 89.6571 334.286 88.9214C331.858 88.1121 329.614 87.0454 327.555 85.7211C325.568 84.3969 323.913 82.9255 322.589 81.307C321.264 79.6149 320.382 77.9229 319.94 76.2308L323.14 74.7962L322.809 88.5903H309.788V7.26012H323.251V44.118L320.933 43.1249C321.301 41.3592 322.11 39.7039 323.361 38.159C324.612 36.5405 326.193 35.1059 328.106 33.8552C330.019 32.531 332.116 31.501 334.396 30.7653C336.677 29.9561 339.031 29.5514 341.459 29.5514C346.609 29.5514 351.17 30.8757 355.143 33.5241C359.189 36.0991 362.353 39.6671 364.633 44.2284C366.987 48.7161 368.164 53.9027 368.164 59.7882C368.164 65.6001 367.024 70.7867 364.743 75.348C362.463 79.9092 359.299 83.5141 355.253 86.1626C351.28 88.7375 346.793 90.0249 341.79 90.0249ZM339.031 78.1068C342.121 78.1068 344.88 77.3343 347.308 75.7894C349.735 74.1709 351.648 72.0006 353.046 69.2785C354.444 66.4829 355.143 63.3195 355.143 59.7882C355.143 56.1833 354.444 53.0199 353.046 50.2978C351.722 47.5022 349.846 45.3319 347.418 43.787C344.99 42.242 342.195 41.4696 339.031 41.4696C335.794 41.4696 332.962 42.242 330.534 43.787C328.106 45.3319 326.193 47.5022 324.796 50.2978C323.398 53.0199 322.699 56.1833 322.699 59.7882C322.699 63.3195 323.398 66.4829 324.796 69.2785C326.193 72.0006 328.106 74.1709 330.534 75.7894C332.962 77.3343 335.794 78.1068 339.031 78.1068ZM403.662 90.0249C397.556 90.0249 392.148 88.7742 387.44 86.2729C382.805 83.698 379.164 80.2035 376.515 75.7894C373.94 71.3017 372.653 66.1519 372.653 60.3399C372.653 55.7787 373.388 51.6221 374.86 47.87C376.331 44.118 378.391 40.881 381.04 38.159C383.688 35.3634 386.815 33.2299 390.42 31.7585C394.098 30.2136 398.071 29.4411 402.338 29.4411C406.237 29.4411 409.805 30.1768 413.042 31.6481C416.353 33.1195 419.222 35.1427 421.649 37.7176C424.077 40.2189 425.916 43.2352 427.167 46.7665C428.491 50.2242 429.117 54.013 429.043 58.1329L428.933 62.9884H381.922L379.274 53.6084H417.566L415.911 55.4844V52.9463C415.69 50.7392 414.955 48.7897 413.704 47.0976C412.453 45.3319 410.835 43.9709 408.848 43.0145C406.936 41.9846 404.802 41.4696 402.448 41.4696C398.843 41.4696 395.79 42.1685 393.289 43.5663C390.787 44.8905 388.875 46.8769 387.55 49.5253C386.3 52.1738 385.674 55.4476 385.674 59.3468C385.674 63.0988 386.447 66.3726 387.992 69.1682C389.61 71.9638 391.891 74.1341 394.834 75.679C397.776 77.224 401.197 77.9964 405.096 77.9964C407.819 77.9964 410.32 77.555 412.6 76.6722C414.955 75.7894 417.456 74.2076 420.105 71.927L426.726 81.1967C424.739 83.0359 422.459 84.6176 419.884 85.9419C417.382 87.1925 414.734 88.1857 411.938 88.9214C409.143 89.6571 406.384 90.0249 403.662 90.0249ZM460.708 90.0249C455.484 90.0249 450.813 88.7375 446.693 86.1626C442.646 83.5141 439.409 79.946 436.982 75.4583C434.627 70.8971 433.45 65.6737 433.45 59.7882C433.45 53.9762 434.627 48.7897 436.982 44.2284C439.336 39.6671 442.536 36.0991 446.582 33.5241C450.702 30.8757 455.337 29.5514 460.487 29.5514C463.282 29.5514 465.968 29.9928 468.543 30.8757C471.191 31.7585 473.545 32.9724 475.605 34.5173C477.739 35.9887 479.394 37.644 480.571 39.4832C481.822 41.3224 482.484 43.2352 482.557 45.2216L478.916 45.663V7.26012H492.489V88.9214H479.357L479.026 75.348L481.675 75.5687C481.601 77.3343 480.976 79.0632 479.799 80.7553C478.622 82.4473 477.04 83.9923 475.053 85.3901C473.141 86.7879 470.934 87.9282 468.432 88.811C465.931 89.6203 463.356 90.0249 460.708 90.0249ZM463.246 78.5482C466.409 78.5482 469.205 77.7757 471.632 76.2308C474.06 74.6123 475.936 72.4052 477.26 69.6096C478.658 66.7404 479.357 63.4666 479.357 59.7882C479.357 56.1097 478.658 52.8727 477.26 50.0771C475.936 47.2815 474.06 45.0744 471.632 43.4559C469.205 41.8374 466.409 41.0282 463.246 41.0282C460.009 41.0282 457.176 41.8374 454.748 43.4559C452.394 45.0744 450.518 47.2815 449.12 50.0771C447.723 52.8727 447.024 56.1097 447.024 59.7882C447.024 63.4666 447.723 66.7404 449.12 69.6096C450.518 72.4052 452.394 74.6123 454.748 76.2308C457.176 77.7757 460.009 78.5482 463.246 78.5482Z" fill="white"/>
</svg>
