<svg viewBox="0 0 501 102" fill="none" xmlns="http://www.w3.org/2000/svg">
<path fill-rule="evenodd" clip-rule="evenodd" d="M58.7219 23.8495C58.7219 31.4984 52.5212 37.6991 44.8723 37.6991C37.2234 37.6991 31.0228 31.4984 31.0228 23.8495C31.0228 16.2006 37.2234 10 44.8723 10C52.5212 10 58.7219 16.2006 58.7219 23.8495ZM58.7219 55.9804C58.7219 63.6293 52.5212 69.8299 44.8723 69.8299C37.2234 69.8299 31.0228 63.6293 31.0228 55.9804C31.0228 48.3315 37.2234 42.1308 44.8723 42.1308C52.5212 42.1308 58.7219 48.3315 58.7219 55.9804ZM13.8495 69.8299C21.4984 69.8299 27.6991 63.6293 27.6991 55.9804C27.6991 48.3315 21.4984 42.1308 13.8495 42.1308C6.20065 42.1308 0 48.3315 0 55.9804C0 63.6293 6.20065 69.8299 13.8495 69.8299ZM89.7452 55.9804C89.7452 63.6293 83.5445 69.8299 75.8956 69.8299C68.2468 69.8299 62.0461 63.6293 62.0461 55.9804C62.0461 48.3315 68.2468 42.1308 75.8956 42.1308C83.5445 42.1308 89.7452 48.3315 89.7452 55.9804ZM103.595 101.961C111.244 101.961 117.444 95.7601 117.444 88.1112C117.444 80.4623 111.244 74.2617 103.595 74.2617C95.9459 74.2617 89.7452 80.4623 89.7452 88.1112C89.7452 95.7601 95.9459 101.961 103.595 101.961ZM62.0461 23.8495C62.0461 16.2006 68.2468 10 75.8956 10H103.595C111.244 10 117.444 16.2006 117.444 23.8495C117.444 31.4984 111.244 37.6991 103.595 37.6991H75.8956C68.2467 37.6991 62.0461 31.4984 62.0461 23.8495ZM44.8723 74.2617C37.2234 74.2617 31.0228 80.4623 31.0228 88.1112C31.0228 95.7601 37.2234 101.961 44.8723 101.961H72.5714C80.2203 101.961 86.4209 95.7601 86.4209 88.1112C86.4209 80.4623 80.2203 74.2617 72.5714 74.2617H44.8723Z" fill="url(#paint0_linear_4_159)"/>
<path d="M183.598 89.1035C177.492 89.1035 172.085 87.8529 167.376 85.3515C162.741 82.7766 159.1 79.2821 156.451 74.868C153.876 70.3803 152.589 65.2305 152.589 59.4186C152.589 54.8573 153.325 50.7007 154.796 46.9487C156.267 43.1967 158.327 39.9596 160.976 37.2376C163.624 34.442 166.751 32.3085 170.356 30.8371C174.034 29.2922 178.007 28.5197 182.274 28.5197C186.173 28.5197 189.741 29.2554 192.978 30.7268C196.289 32.1981 199.158 34.2213 201.586 36.7962C204.013 39.2975 205.853 42.3138 207.103 45.8451C208.428 49.3029 209.053 53.0916 208.979 57.2115L208.869 62.067H161.859L159.21 52.687H197.503L195.847 54.563V52.0249C195.627 49.8178 194.891 47.8683 193.64 46.1762C192.39 44.4105 190.771 43.0495 188.785 42.0931C186.872 41.0632 184.738 40.5482 182.384 40.5482C178.779 40.5482 175.726 41.2471 173.225 42.6449C170.724 43.9691 168.811 45.9555 167.487 48.604C166.236 51.2524 165.611 54.5262 165.611 58.4254C165.611 62.1774 166.383 65.4512 167.928 68.2468C169.546 71.0424 171.827 73.2127 174.77 74.7576C177.713 76.3026 181.134 77.075 185.033 77.075C187.755 77.075 190.256 76.6336 192.537 75.7508C194.891 74.868 197.392 73.2863 200.041 71.0056L206.662 80.2753C204.676 82.1145 202.395 83.6962 199.82 85.0205C197.319 86.2711 194.67 87.2643 191.875 88C189.079 88.7357 186.32 89.1035 183.598 89.1035ZM213.607 88V29.8439H226.85L227.07 41.6517L224.863 42.5345C225.525 40.6218 226.519 38.8561 227.843 37.2376C229.167 35.5455 230.749 34.0741 232.588 32.8235C234.427 31.5728 236.377 30.6164 238.437 29.9543C240.497 29.2186 242.63 28.8508 244.837 28.8508C248.001 28.8508 250.796 29.3657 253.224 30.3957C255.652 31.4257 257.675 33.0074 259.293 35.1409C260.985 37.2744 262.273 39.9964 263.156 43.307L261.059 42.8656L261.831 41.0999C262.714 39.3343 263.891 37.7158 265.363 36.2444C266.834 34.773 268.489 33.4856 270.329 32.3821C272.168 31.205 274.081 30.3221 276.067 29.7336C278.127 29.145 280.113 28.8508 282.026 28.8508C286.44 28.8508 290.119 29.7336 293.061 31.4992C296.004 33.2649 298.211 35.9501 299.683 39.555C301.154 43.1599 301.89 47.6108 301.89 52.9077V88H288.316V53.7906C288.316 49.3764 287.433 46.1026 285.668 43.9691C283.976 41.8356 281.327 40.7689 277.722 40.7689C275.81 40.7689 274.044 41.0999 272.425 41.7621C270.807 42.3506 269.372 43.2334 268.122 44.4105C266.945 45.5141 266.025 46.8383 265.363 48.3832C264.701 49.8546 264.37 51.5099 264.37 53.3491V88H250.796V53.6802C250.796 49.4868 249.877 46.2865 248.037 44.0795C246.272 41.8724 243.734 40.7689 240.423 40.7689C238.51 40.7689 236.745 41.0999 235.126 41.7621C233.581 42.3506 232.183 43.2334 230.933 44.4105C229.756 45.5141 228.836 46.8015 228.174 48.2729C227.512 49.7443 227.181 51.3628 227.181 53.1284V88H213.607ZM341.79 89.1035C339.215 89.1035 336.714 88.7357 334.286 88C331.858 87.1907 329.614 86.124 327.555 84.7998C325.568 83.4755 323.913 82.0042 322.589 80.3856C321.264 78.6936 320.382 77.0015 319.94 75.3094L323.14 73.8748L322.809 87.6689H309.788V6.33874H323.251V43.1967L320.933 42.2035C321.301 40.4378 322.11 38.7825 323.361 37.2376C324.612 35.6191 326.193 34.1845 328.106 32.9338C330.019 31.6096 332.116 30.5796 334.396 29.8439C336.677 29.0347 339.031 28.63 341.459 28.63C346.609 28.63 351.17 29.9543 355.143 32.6028C359.189 35.1777 362.353 38.7458 364.633 43.307C366.987 47.7947 368.164 52.9813 368.164 58.8668C368.164 64.6787 367.024 69.8653 364.743 74.4266C362.463 78.9878 359.299 82.5927 355.253 85.2412C351.28 87.8161 346.793 89.1035 341.79 89.1035ZM339.031 77.1854C342.121 77.1854 344.88 76.4129 347.308 74.868C349.735 73.2495 351.648 71.0792 353.046 68.3572C354.444 65.5615 355.143 62.3981 355.143 58.8668C355.143 55.2619 354.444 52.0985 353.046 49.3764C351.722 46.5808 349.846 44.4105 347.418 42.8656C344.99 41.3207 342.195 40.5482 339.031 40.5482C335.794 40.5482 332.962 41.3207 330.534 42.8656C328.106 44.4105 326.193 46.5808 324.796 49.3764C323.398 52.0985 322.699 55.2619 322.699 58.8668C322.699 62.3981 323.398 65.5615 324.796 68.3572C326.193 71.0792 328.106 73.2495 330.534 74.868C332.962 76.4129 335.794 77.1854 339.031 77.1854ZM403.662 89.1035C397.556 89.1035 392.148 87.8529 387.44 85.3515C382.805 82.7766 379.164 79.2821 376.515 74.868C373.94 70.3803 372.653 65.2305 372.653 59.4186C372.653 54.8573 373.388 50.7007 374.86 46.9487C376.331 43.1967 378.391 39.9596 381.04 37.2376C383.688 34.442 386.815 32.3085 390.42 30.8371C394.098 29.2922 398.071 28.5197 402.338 28.5197C406.237 28.5197 409.805 29.2554 413.042 30.7268C416.353 32.1981 419.222 34.2213 421.649 36.7962C424.077 39.2975 425.916 42.3138 427.167 45.8451C428.491 49.3029 429.117 53.0916 429.043 57.2115L428.933 62.067H381.922L379.274 52.687H417.566L415.911 54.563V52.0249C415.69 49.8178 414.955 47.8683 413.704 46.1762C412.453 44.4105 410.835 43.0495 408.848 42.0931C406.936 41.0632 404.802 40.5482 402.448 40.5482C398.843 40.5482 395.79 41.2471 393.289 42.6449C390.787 43.9691 388.875 45.9555 387.55 48.604C386.3 51.2524 385.674 54.5262 385.674 58.4254C385.674 62.1774 386.447 65.4512 387.992 68.2468C389.61 71.0424 391.891 73.2127 394.834 74.7576C397.776 76.3026 401.197 77.075 405.096 77.075C407.819 77.075 410.32 76.6336 412.6 75.7508C414.955 74.868 417.456 73.2863 420.105 71.0056L426.726 80.2753C424.739 82.1145 422.459 83.6962 419.884 85.0205C417.382 86.2711 414.734 87.2643 411.938 88C409.143 88.7357 406.384 89.1035 403.662 89.1035ZM460.708 89.1035C455.484 89.1035 450.813 87.8161 446.693 85.2412C442.646 82.5927 439.409 79.0246 436.982 74.5369C434.627 69.9757 433.45 64.7523 433.45 58.8668C433.45 53.0549 434.627 47.8683 436.982 43.307C439.336 38.7458 442.536 35.1777 446.582 32.6028C450.702 29.9543 455.337 28.63 460.487 28.63C463.282 28.63 465.968 29.0715 468.543 29.9543C471.191 30.8371 473.545 32.051 475.605 33.5959C477.739 35.0673 479.394 36.7226 480.571 38.5618C481.822 40.401 482.484 42.3138 482.557 44.3002L478.916 44.7416V6.33874H492.489V88H479.357L479.026 74.4266L481.675 74.6473C481.601 76.4129 480.976 78.1418 479.799 79.8339C478.622 81.526 477.04 83.0709 475.053 84.4687C473.141 85.8665 470.934 87.0068 468.432 87.8896C465.931 88.6989 463.356 89.1035 460.708 89.1035ZM463.246 77.6268C466.409 77.6268 469.205 76.8543 471.632 75.3094C474.06 73.6909 475.936 71.4838 477.26 68.6882C478.658 65.819 479.357 62.5452 479.357 58.8668C479.357 55.1884 478.658 51.9513 477.26 49.1557C475.936 46.3601 474.06 44.153 471.632 42.5345C469.205 40.916 466.409 40.1068 463.246 40.1068C460.009 40.1068 457.176 40.916 454.748 42.5345C452.394 44.153 450.518 46.3601 449.12 49.1557C447.723 51.9513 447.024 55.1884 447.024 58.8668C447.024 62.5452 447.723 65.819 449.12 68.6882C450.518 71.4838 452.394 73.6909 454.748 75.3094C457.176 76.8543 460.009 77.6268 463.246 77.6268Z" fill="#280A5F"/>
<defs>
<linearGradient id="paint0_linear_4_159" x1="-0.0575918" y1="64.99" x2="110.792" y2="64.99" gradientUnits="userSpaceOnUse">
<stop stop-color="#F059FC"/>
<stop offset="1" stop-color="#16BBFD"/>
</linearGradient>
</defs>
</svg>
