<svg width="300" height="235" viewBox="0 0 300 235" fill="none" xmlns="http://www.w3.org/2000/svg">
<path fill-rule="evenodd" clip-rule="evenodd" d="M150 35.3773C150 54.9157 134.161 70.7547 114.622 70.7547C95.0841 70.7547 79.2451 54.9157 79.2451 35.3773C79.2451 15.839 95.0841 0 114.622 0C134.161 0 150 15.839 150 35.3773ZM150 117.452C150 136.991 134.161 152.83 114.622 152.83C95.0841 152.83 79.2451 136.991 79.2451 117.452C79.2451 97.9141 95.0841 82.0751 114.622 82.0751C134.161 82.0751 150 97.9141 150 117.452ZM35.3773 152.83C54.9157 152.83 70.7547 136.991 70.7547 117.452C70.7547 97.9141 54.9157 82.0751 35.3773 82.0751C15.839 82.0751 0 97.9141 0 117.452C0 136.991 15.839 152.83 35.3773 152.83ZM229.245 117.452C229.245 136.991 213.406 152.83 193.868 152.83C174.329 152.83 158.49 136.991 158.49 117.452C158.49 97.9141 174.329 82.0751 193.868 82.0751C213.406 82.0751 229.245 97.9141 229.245 117.452ZM264.622 234.905C284.161 234.905 300 219.066 300 199.528C300 179.99 284.161 164.151 264.622 164.151C245.084 164.151 229.245 179.99 229.245 199.528C229.245 219.066 245.084 234.905 264.622 234.905ZM158.49 35.3773C158.49 15.839 174.329 0 193.868 0H264.622C284.161 0 300 15.839 300 35.3773C300 54.9157 284.161 70.7547 264.622 70.7547H193.868C174.329 70.7547 158.49 54.9157 158.49 35.3773ZM114.622 164.151C95.0841 164.151 79.2451 179.99 79.2451 199.528C79.2451 219.066 95.0841 234.905 114.622 234.905H185.377C204.915 234.905 220.754 219.066 220.754 199.528C220.754 179.99 204.915 164.151 185.377 164.151H114.622Z" fill="url(#paint0_linear_3_84)"/>
<defs>
<linearGradient id="paint0_linear_3_84" x1="-2.05582e-06" y1="117.994" x2="300" y2="117.994" gradientUnits="userSpaceOnUse">
<stop stop-color="#F059FC"/>
<stop offset="1" stop-color="#16BBFD"/>
</linearGradient>
</defs>
</svg>
