<svg width="20" height="19" viewBox="0 0 20 19" fill="none" xmlns="http://www.w3.org/2000/svg">
<path d="M20 2.37499C20 1.56972 19.3603 0.916656 18.5714 0.916656H1.42857C0.638392 0.916656 -4.76837e-07 1.56972 -4.76837e-07 2.37499C-4.76837e-07 3.18163 0.638392 3.83332 1.42857 3.83332H18.5714C19.3603 3.83332 20 3.18163 20 2.37499ZM20 9.66666C20 8.86002 19.3603 8.20832 18.5714 8.20832H7.14286C6.35268 8.20832 5.71429 8.86002 5.71429 9.66666C5.71429 10.4733 6.35268 11.125 7.14286 11.125H18.5714C19.3603 11.125 20 10.4733 20 9.66666ZM12.8571 18.4167H18.5714C19.3603 18.4167 20 17.765 20 16.9583C20 16.1517 19.3603 15.5 18.5714 15.5H12.8571C12.067 15.5 11.4286 16.1517 11.4286 16.9583C11.4286 17.765 12.067 18.4167 12.8571 18.4167Z" fill="#280A5F"/>
</svg>
